<svg width="123" height="38" viewBox="0 0 123 38" fill="none" xmlns="http://www.w3.org/2000/svg">
<path d="M28.38 31V29.89L36.51 20.2L28.38 10.51V9.4H32.67L39.15 17.08L45.57 9.4H49.89V10.51L41.73 20.2L49.89 29.86V31H45.57L39.12 23.35L32.67 31H28.38ZM52.4857 31V9.4H72.3757V13.39H56.4757V18.19H69.2557V22.21H56.4757V27.01H72.3757V31H52.4857ZM78.9645 31C78.2045 31 77.5045 30.81 76.8645 30.43C76.2445 30.05 75.7445 29.55 75.3645 28.93C74.9845 28.29 74.7945 27.59 74.7945 26.83V13.57C74.7945 12.81 74.9845 12.12 75.3645 11.5C75.7445 10.86 76.2445 10.35 76.8645 9.97C77.5045 9.59 78.2045 9.4 78.9645 9.4H96.3345V13.39H79.8045C79.4845 13.39 79.2245 13.48 79.0245 13.66C78.8445 13.84 78.7545 14.1 78.7545 14.44V25.96C78.7545 26.28 78.8445 26.54 79.0245 26.74C79.2245 26.92 79.4845 27.01 79.8045 27.01H96.3345V31H78.9645ZM102.972 31C102.212 31 101.512 30.81 100.872 30.43C100.252 30.05 99.7524 29.55 99.3724 28.93C98.9924 28.29 98.8024 27.59 98.8024 26.83V13.57C98.8024 12.81 98.9924 12.12 99.3724 11.5C99.7524 10.86 100.252 10.35 100.872 9.97C101.512 9.59 102.212 9.4 102.972 9.4H116.232C116.992 9.4 117.682 9.59 118.302 9.97C118.942 10.35 119.452 10.86 119.832 11.5C120.212 12.12 120.402 12.81 120.402 13.57V26.83C120.402 27.59 120.212 28.29 119.832 28.93C119.452 29.55 118.942 30.05 118.302 30.43C117.682 30.81 116.992 31 116.232 31H102.972ZM103.122 27.01H116.022C116.122 27.01 116.212 26.98 116.292 26.92C116.372 26.84 116.412 26.75 116.412 26.65V13.75C116.412 13.65 116.372 13.57 116.292 13.51C116.212 13.43 116.122 13.39 116.022 13.39H103.122C103.022 13.39 102.932 13.43 102.852 13.51C102.792 13.57 102.762 13.65 102.762 13.75V26.65C102.762 26.75 102.792 26.84 102.852 26.92C102.932 26.98 103.022 27.01 103.122 27.01Z" fill="white"/>
<g clip-path="url(#clip0_147_687)">
<path d="M17.1294 19.4962C18.6408 18.6891 19.9433 17.2612 20.1399 15.7712C20.484 13.114 18.8005 11.1149 16.6502 10.196C14.082 9.09091 15.79 9.88559 5.97198 7.26563C1.25344 6.01153 0.958527 4.84435 1.05683 4C-0.208823 4.84435 -0.602035 9.43858 1.60978 10.8293C3.88304 12.2448 8.40499 12.5428 14.0943 14.1818C19.0954 15.6098 18.3582 18.2545 17.1294 19.4962Z" fill="url(#paint0_linear_147_687)"/>
<path d="M18.137 20.2786C17.7069 20.0178 17.2277 19.8068 16.7239 19.6453C9.60923 17.9939 8.98255 18.0312 6.62327 17.4476C0.196709 15.8582 0.958557 14.542 0.798815 14.0205C-0.39311 15.2994 -0.405398 19.2977 1.79413 20.5021C4.46061 21.9549 9.15458 22.4267 15.1019 23.9292C17.0311 24.4134 18.1739 24.997 19.0218 25.6799C19.9556 26.4498 20.2137 27.5549 19.501 28.4986C18.8743 29.3181 17.1909 29.1815 15.3231 28.9207C12.0177 28.4489 7.8152 27.4804 6.63556 27.1575C1.33948 25.6799 0.970845 24.2644 0.811103 23.7305C-0.380823 25.0094 -0.393111 29.0076 1.80642 30.2121C3.5513 31.1682 5.21017 31.7145 8.79823 31.9256C11.4278 32.087 16.1955 32.236 18.5302 29.7775C18.7637 29.5416 20.57 28.1509 20.951 25.7544C21.2827 23.5194 20.0785 21.4334 18.137 20.2786Z" fill="url(#paint1_linear_147_687)"/>
<path d="M12.546 18.7016C12.5337 18.7016 12.5337 18.7016 12.546 18.7016C14.6718 19.1734 16.7361 19.6453 16.7361 19.6453C16.773 19.6577 16.8099 19.6701 16.8467 19.6825C16.945 19.6204 17.0433 19.5708 17.1416 19.5087C18.3704 18.267 19.1077 15.6222 14.1065 14.1943C13.7625 14.0949 13.4184 13.9956 13.0866 13.9087C14.4752 14.4674 16.4535 17.5717 12.546 18.7016Z" fill="url(#paint2_linear_147_687)"/>
<path d="M13.8485 28.3993C13.7501 28.4738 13.6518 28.5483 13.5535 28.6104C14.1556 28.7345 14.7455 28.8339 15.3107 28.9084C17.1785 29.1691 18.8619 29.3057 19.4886 28.4862C20.2136 27.5549 19.9555 26.4374 19.0094 25.6676C17.4488 24.4011 15.4336 23.9789 13.3938 23.4946C14.8929 24.2024 16.1463 26.5368 13.8485 28.3993Z" fill="url(#paint3_linear_147_687)"/>
</g>
<defs>
<linearGradient id="paint0_linear_147_687" x1="12.4975" y1="19.4962" x2="12.5881" y2="4.40855" gradientUnits="userSpaceOnUse">
<stop stop-color="#44A08D"/>
</linearGradient>
<linearGradient id="paint1_linear_147_687" x1="12.9936" y1="32.0039" x2="13.1107" y2="14.4948" gradientUnits="userSpaceOnUse">
<stop stop-color="#44A08D"/>
</linearGradient>
<linearGradient id="paint2_linear_147_687" x1="15.9439" y1="19.6825" x2="15.99" y2="14.0611" gradientUnits="userSpaceOnUse">
<stop stop-color="#44A08D"/>
</linearGradient>
<linearGradient id="paint3_linear_147_687" x1="17.4222" y1="29.1097" x2="17.459" y2="23.6427" gradientUnits="userSpaceOnUse">
<stop stop-color="#44A08D"/>
</linearGradient>
<clipPath id="clip0_147_687">
<rect width="21" height="28" fill="white" transform="translate(0 4)"/>
</clipPath>
</defs>
</svg>
